<svg xmlns="http://www.w3.org/2000/svg" xmlns:xlink="http://www.w3.org/1999/xlink" width="24" height="24" viewBox="0 0 24 24">
  <defs>
    <clipPath id="clip-path">
      <rect id="Rectangle_1" data-name="Rectangle 1" width="24" height="24" transform="translate(-345 583)" fill="#51585c"/>
    </clipPath>
  </defs>
  <g id="Mask_Group_1" data-name="Mask Group 1" transform="translate(345 -583)" clip-path="url(#clip-path)">
    <path id="chatbox" d="M7.714,24.857A.857.857,0,0,1,6.857,24V20.571H5.571a3.861,3.861,0,0,1-3.857-3.857V6.429A3.861,3.861,0,0,1,5.571,2.571H21.857a3.861,3.861,0,0,1,3.857,3.857V16.714a3.861,3.861,0,0,1-3.857,3.857H13.165l-4.9,4.087a.86.86,0,0,1-.549.2Z" transform="translate(-346.714 581.286)" fill="#51585c"/>
  </g>
</svg>
