<svg width="20" height="20" xmlns="http://www.w3.org/2000/svg" viewBox="0 0 20 20"><title>whatsapp [#128]</title><g fill="#009688" class="nc-icon-wrapper"><g id="Page-1" stroke="none" stroke-width="1" fill="none" fill-rule="evenodd"><g id="Dribbble-Light-Preview" transform="translate(-300 -7599)" fill="#009688"><g id="icons" transform="translate(56 160)"><path d="M259.821 7453.121c-.241.682-1.199 1.247-1.963 1.412-.523.11-1.205.199-3.503-.754-2.581-1.069-6.165-4.878-6.165-7.413 0-1.29.744-2.793 2.045-2.793.626 0 .764.012.97.507.241.582.829 2.016.899 2.163.289.603-.294.956-.717 1.482-.135.158-.288.329-.117.623.17.288.758 1.246 1.622 2.015 1.116.995 2.021 1.312 2.345 1.447.241.1.529.077.705-.111.223-.241.5-.641.782-1.035.199-.283.452-.318.717-.218.179.062 2.454 1.119 2.55 1.288.071.123.071.705-.17 1.387M254.002 7439h-.005c-5.513 0-9.997 4.485-9.997 10 0 2.187.705 4.215 1.904 5.86l-1.246 3.717 3.843-1.229a9.923 9.923 0 0 0 5.501 1.652c5.513 0 9.998-4.485 9.998-10s-4.485-10-9.998-10" id="whatsapp-[#128]"></path></g></g></g></g></svg>