<svg xmlns="http://www.w3.org/2000/svg" xmlns:xlink="http://www.w3.org/1999/xlink" width="24" height="24" viewBox="0 0 24 24">
  <defs>
    <clipPath id="clip-path">
      <rect id="Rectangle_8" data-name="Rectangle 8" width="24" height="24" transform="translate(-405 617)" fill="#51585c"/>
    </clipPath>
  </defs>
  <g id="Mask_Group_8" data-name="Mask Group 8" transform="translate(405 -617)" clip-path="url(#clip-path)">
    <g id="mic" transform="translate(-407.769 614.231)">
      <line id="Line_3" data-name="Line 3" x2="7.385" transform="translate(11.077 25.846)" fill="none" stroke="#51585c" stroke-linecap="round" stroke-linejoin="round" stroke-width="1.846"/>
      <path id="Path_9" data-name="Path 9" d="M22.154,12v1.846a7.406,7.406,0,0,1-7.385,7.385h0a7.406,7.406,0,0,1-7.385-7.385V12" fill="none" stroke="#51585c" stroke-linecap="round" stroke-linejoin="round" stroke-width="1.846"/>
      <line id="Line_4" data-name="Line 4" y2="4.615" transform="translate(14.769 21.231)" fill="none" stroke="#51585c" stroke-linecap="round" stroke-linejoin="round" stroke-width="1.846"/>
      <path id="Path_10" data-name="Path 10" d="M14.769,18.462a4.548,4.548,0,0,1-3.262-1.39,4.667,4.667,0,0,1-1.353-3.283v-6.4a4.615,4.615,0,1,1,9.231,0v6.4A4.65,4.65,0,0,1,14.769,18.462Z" fill="#51585c"/>
    </g>
  </g>
</svg>
