<svg xmlns="http://www.w3.org/2000/svg" xmlns:xlink="http://www.w3.org/1999/xlink" width="24" height="24" viewBox="0 0 24 24">
  <defs>
    <clipPath id="clip-path">
      <rect id="Rectangle_5" data-name="Rectangle 5" width="24" height="24" transform="translate(901 138)" fill="#fff"/>
    </clipPath>
  </defs>
  <g id="Mask_Group_1" data-name="Mask Group 1" transform="translate(-901 -138)" clip-path="url(#clip-path)">
    <g id="upload-thin" transform="translate(901 138)">
      <path id="Path_2" data-name="Path 2" d="M0,0H24V24H0Z" fill="none"/>
      <path id="Path_3" data-name="Path 3" d="M16.5,12H21a.75.75,0,0,1,.75.75v6a.75.75,0,0,1-.75.75H3a.75.75,0,0,1-.75-.75v-6A.75.75,0,0,1,3,12H7.5" fill="none" stroke="#009688" stroke-linecap="round" stroke-linejoin="round" stroke-width="2"/>
      <path id="Path_4" data-name="Path 4" d="M12,12V2.25" fill="none" stroke="#009688" stroke-linecap="round" stroke-linejoin="round" stroke-width="2"/>
      <path id="Path_5" data-name="Path 5" d="M7.5,6.75,12,2.25l4.5,4.5" fill="none" stroke="#009688" stroke-linecap="round" stroke-linejoin="round" stroke-width="2"/>
      <circle id="Ellipse_1" data-name="Ellipse 1" cx="0.75" cy="0.75" r="0.75" transform="translate(16.875 15)" fill="#6f4ec9"/>
    </g>
  </g>
</svg>
